<svg xmlns="http://www.w3.org/2000/svg" viewBox="0 0 259.04 110.1"><defs><style>.cls-1{fill:#5ce500;}.cls-2{fill:#fff;}</style></defs><g id="Logos"><path class="cls-1" d="M48.6,40.62a2,2,0,0,1-.9,1.55L35.19,49.39V21.54L11.07,7.61,23.57.39a2,2,0,0,1,1.8,0L48.6,13.8Zm-18.78-16L13.3,15.09a2,2,0,0,0-1.79,0L.34,21.54,17.77,31.6V51.72l11.16-6.45a2,2,0,0,0,.89-1.55ZM.34,41.66l12.06,7V34.69Z"/><path class="cls-2" d="M75.13,13.79H62v35.6h5.83v-14h7.36c8,0,12.35-3.89,12.35-11,0-3.21-1.21-10.67-12.4-10.67M81.6,24.56c0,4-2.08,5.65-7.19,5.65H67.82V19.05h7.36c4.32,0,6.42,1.8,6.42,5.51m23.29-1.11.45.22-1,5.26-.69-.21a5.71,5.71,0,0,0-1.68-.26c-5.45,0-5.89,4.34-5.89,9.59V49.39H90.68V23.25h5.07V26.4A7,7,0,0,1,101,22.92a7.33,7.33,0,0,1,3.9.53m13.28-.73c-4.25,0-7.65,1.62-9.85,4.68a15.74,15.74,0,0,0-2.64,9c0,8.26,4.9,13.6,12.49,13.6,9.23,0,12.5-7.43,12.5-13.79a14.67,14.67,0,0,0-3-9.36,11.83,11.83,0,0,0-9.45-4.1m0,22.42c-4.22,0-6.85-3.36-6.85-8.77s2.63-8.87,6.85-8.87,6.9,3.44,6.9,8.77-2.64,8.87-6.9,8.87m57.89-21.69.44.22-1,5.26-.68-.21a5.78,5.78,0,0,0-1.69-.26c-5.44,0-5.89,4.34-5.89,9.59V49.39h-5.4V23.25h5.07V26.4a7,7,0,0,1,5.24-3.48,7.36,7.36,0,0,1,3.9.53M195.46,41l-.1.29a5.75,5.75,0,0,1-5.89,3.89c-4.08,0-6.71-2.72-7-7.12H201l.07-.52a15.91,15.91,0,0,0,.06-2.08c0-.17,0-.32,0-.47-.27-7.32-5-12.23-11.87-12.23a11.27,11.27,0,0,0-9.46,4.53A15.65,15.65,0,0,0,177,36.42c0,8.07,5,13.5,12.49,13.5,5.79,0,9.77-2.94,11.22-8.27l.17-.64Zm-12.78-7.63c.45-3.62,2.93-5.93,6.46-5.93a6.14,6.14,0,0,1,6.32,5.93ZM152,25.44a9.26,9.26,0,0,0-6.95-2.72c-7.92,0-11.53,7-11.53,13.46,0,6.64,3.57,13.35,11.53,13.35a9.26,9.26,0,0,0,6.75-2.73c0,1.15-.05,2.25-.08,2.71-.3,4.32-2.37,6.33-6.52,6.33-2.26,0-4.86-.81-5.36-3.06l-.11-.5h-5.32l.09.71c.55,4.61,4.6,7.47,10.55,7.47,5.23,0,8.95-2,10.75-5.69A18.19,18.19,0,0,0,157.13,47V23.25H152ZM145.4,44.71c-1.89,0-6.27-.86-6.27-8.77,0-5.21,2.46-8.44,6.41-8.44,3.06,0,6.33,2.22,6.33,8.44,0,5.49-2.42,8.77-6.47,8.77m80.66-3.19c0,4.16-3.45,8.35-11.16,8.35-6.82,0-10.88-2.95-11.42-8.31l-.06-.55h5.32l.08.4c.65,3.22,3.72,3.9,6.18,3.9,2.7,0,5.58-.87,5.58-3.31,0-1.23-.81-2.11-2.39-2.6-.94-.28-2.09-.61-3.32-.95-2.1-.58-4.27-1.2-5.61-1.66-3.32-1.19-5.22-3.5-5.22-6.34,0-5.28,5.13-7.64,10.21-7.64,6.8,0,10.32,2.57,10.76,7.83l.05.54h-5.24l-.08-.41c-.52-3-3.54-3.49-5.29-3.49-1.51,0-5,.27-5,2.78,0,1.14,1,2,3,2.55l2.51.67c2.14.55,4.79,1.24,6.13,1.7,3.33,1.17,5,3.37,5,6.54m24.95,0c0,4.16-3.45,8.35-11.16,8.35-6.82,0-10.88-2.95-11.42-8.31l-.06-.55h5.32l.08.4c.65,3.22,3.72,3.9,6.18,3.9,2.7,0,5.58-.87,5.58-3.31,0-1.23-.81-2.11-2.39-2.6-.94-.28-2.1-.61-3.32-.95-2.1-.58-4.27-1.2-5.61-1.66-3.32-1.19-5.22-3.5-5.22-6.34,0-5.28,5.13-7.64,10.21-7.64,6.8,0,10.32,2.57,10.76,7.83l0,.54h-5.24l-.07-.41c-.53-3-3.54-3.49-5.3-3.49-1.51,0-5,.27-5,2.78,0,1.14,1,2,3,2.55.6.17,1.49.4,2.52.67,2.13.55,4.78,1.24,6.12,1.7,3.33,1.17,5,3.37,5,6.54"/><path class="cls-2" d="M255.28,26.05A3.72,3.72,0,1,1,259,22.33a3.65,3.65,0,0,1-3.69,3.72m0-6.81a3.09,3.09,0,1,0,3,3.09,3,3,0,0,0-3-3.09M254.86,23v1.24h-1.1v-3.9h1.83A1.3,1.3,0,0,1,257,21.72a1.14,1.14,0,0,1-.75,1.18l.9,1.36H256L255.2,23Zm.61-1.75h-.61v.88h.61c.32,0,.51-.17.51-.43a.45.45,0,0,0-.51-.45"/><path class="cls-2" d="M75.61,73.88a14.56,14.56,0,0,1,9.57,3v3.19a13.59,13.59,0,0,0-9.52-3.48c-7.47,0-12.94,5.82-12.94,15.28s5.47,15.28,12.94,15.28a13.64,13.64,0,0,0,9.52-3.54v3.25a14.51,14.51,0,0,1-9.57,3c-8.84,0-15.85-6.9-15.85-18S66.77,73.88,75.61,73.88Z"/><path class="cls-2" d="M89.06,72.34h2.85V88.13A9.83,9.83,0,0,1,100,83.57c5.76,0,8.78,3.7,8.78,9.06v16.76H106V93c0-3.93-2-6.84-6.5-6.84a8.46,8.46,0,0,0-7.58,5.47v17.73H89.06Z"/><path class="cls-2" d="M124.92,107.4a10.17,10.17,0,0,0,7.13-2.51v2.79a11.33,11.33,0,0,1-7.36,2.23c-7.07,0-11.8-5-11.8-13s4.22-13.39,11-13.39,10,5,10,12.37v1H115.68C115.68,103.81,119.68,107.4,124.92,107.4ZM115.8,94.63h15.33c-.17-4.45-2.28-8.55-7.29-8.55C119.68,86.08,116.48,89.15,115.8,94.63Z"/><path class="cls-2" d="M149,75a5.3,5.3,0,0,0-2.56-.63c-2.68,0-4.62,1.94-4.62,5.48v4.27h5.93v2.45h-5.93v22.86H139V86.53h-4.11V84.08H139V79.52c0-4.62,3-7.7,7.12-7.7a7.5,7.5,0,0,1,2.85.52Z"/><path class="cls-2" d="M156.07,86.13a3.74,3.74,0,1,1,3.69-3.73A3.67,3.67,0,0,1,156.07,86.13Zm0-6.84a3.11,3.11,0,1,0,3,3.11A3,3,0,0,0,156.07,79.29Zm-.43,3.8v1.24h-1.1V80.42h1.83a1.31,1.31,0,0,1,1.45,1.36,1.16,1.16,0,0,1-.76,1.19l.9,1.36h-1.22L156,83.09Zm.61-1.76h-.61v.88h.61c.33,0,.51-.16.51-.43A.45.45,0,0,0,156.25,81.33Z"/></g></svg>